<svg id="Layer_1" data-name="Layer 1" xmlns="http://www.w3.org/2000/svg" viewBox="0 0 32 32">
  <g id="Y2OG2m.tif">
    <g>
      <path d="M16.28,16.2c0-3.36,0-6.11,0-8.86a.73.73,0,0,0-.39-.75,1.36,1.36,0,0,1-.36-1.9A1.54,1.54,0,0,1,16.7,4a1.46,1.46,0,0,1,1.44,1.58,1.38,1.38,0,0,1-.76,1.11c-.21.12-.22.29-.22.49,0,2.83,0,5.66,0,8.49,0,4,0,8.08,0,12.12a.52.52,0,0,0,.28.5,1.34,1.34,0,0,1,.66,1.42,1.31,1.31,0,0,1-.91,1.14,1.39,1.39,0,0,1-1.86-1.24,1.35,1.35,0,0,1,.72-1.36.39.39,0,0,0,.23-.42c0-1.08,0-2.16,0-3.24C16.22,21.6,16.32,18.59,16.28,16.2ZM16.22,5.44A.48.48,0,0,0,16.7,6a.53.53,0,0,0,.55-.51.54.54,0,0,0-.54-.53A.47.47,0,0,0,16.22,5.44Zm1,24.07a.46.46,0,0,0-.51-.49.49.49,0,0,0-.52.49.51.51,0,0,0,.52.5A.49.49,0,0,0,17.26,29.51Z" style="fill: #7fb141"/>
      <path d="M14.44,20.53c0-1.91,0-3.83,0-5.74a.66.66,0,0,0-.21-.51c-.91-.9-1.81-1.8-2.7-2.72a.57.57,0,0,0-.67-.17,1.4,1.4,0,0,1-1.39-2.2,1.32,1.32,0,0,1,1.24-.59,1.38,1.38,0,0,1,1.22,1.89c-.06.17,0,.26.14.36,1,1,2,2,2.94,3a.86.86,0,0,1,.28.67c0,3.93,0,7.85,0,11.78,0,.14.08.34-.1.4a1.06,1.06,0,0,1-.66,0c-.12,0-.09-.18-.09-.28V20.53ZM10.13,10a.47.47,0,0,0,.49.52.52.52,0,0,0,.54-.52.55.55,0,0,0-.54-.52A.48.48,0,0,0,10.13,10Z" style="fill: #7fb141"/>
    </g>
  </g>
  <g id="_7ff57r.tif" data-name="7ff57r.tif">
    <path d="M13.33,22.26c0,.69,0,1.37,0,2.06,0,.21-.08.3-.29.28a.49.49,0,0,0-.17,0c-.2,0-.28-.07-.28-.28,0-1,0-2,0-2.94,0-.16,0-.33,0-.49s-.07-.24-.24-.23c-.33,0-.66,0-1,0-1-.05-2-.1-3-.2A1.59,1.59,0,0,1,7,18.83c0-1,0-2.09,0-3.14,0-.23,0-.33-.31-.34a5.75,5.75,0,0,1-1.09-.17c-.28-.07-.35-.31-.26-.58a19.33,19.33,0,0,1,1.87-3.92,2,2,0,0,0,.23-.8c.1-.86.17-1.72.25-2.58A6,6,0,0,1,9,4a7.18,7.18,0,0,1,3.65-2.35,8.56,8.56,0,0,1,2.19-.41c.5,0,1-.09,1.52-.08a8.36,8.36,0,0,1,2.47.46,9.37,9.37,0,0,1,3.1,1.73,8.12,8.12,0,0,1,2.55,3.71,7.92,7.92,0,0,1,.37,3.09A10.62,10.62,0,0,1,23.45,15a.41.41,0,0,0,0,.44,1.27,1.27,0,0,1-.29,1.45,1.34,1.34,0,0,1-1.43.21A1.28,1.28,0,0,1,21,15.88a1.25,1.25,0,0,1,1.41-1.21.47.47,0,0,0,.58-.3,8.2,8.2,0,0,0,.9-2.54c.09-.54.1-1.09.21-1.63a5.55,5.55,0,0,0,0-1.82A6.23,6.23,0,0,0,23.19,6,8.13,8.13,0,0,0,19.52,2.7a8.71,8.71,0,0,0-2.76-.76A8.82,8.82,0,0,0,14.58,2a8,8,0,0,0-4.22,1.67A5.07,5.07,0,0,0,8.43,7C8.3,8,8.21,9,8.14,10a3.82,3.82,0,0,1-.55,1.51c-.49.91-1,1.84-1.41,2.76-.13.27-.06.38.24.38h.89c.37,0,.37,0,.37.38,0,1.23,0,2.46,0,3.68a1,1,0,0,0,.27.8,1.28,1.28,0,0,0,.48.31,2.45,2.45,0,0,0,.66.1l2.2,0,1.85,0c.2,0,.2.12.2.26Zm8.38-6.33a.54.54,0,0,0,.56.55.56.56,0,0,0,0-1.11A.53.53,0,0,0,21.71,15.93Z" style="fill: #0c7853"/>
  </g>
</svg>
